<mxfile host="Electron" agent="Mozilla/5.0 (Windows NT 10.0; Win64; x64) AppleWebKit/537.36 (KHTML, like Gecko) draw.io/26.2.2 Chrome/134.0.6998.178 Electron/35.1.2 Safari/537.36" version="26.2.2" pages="2">
  <diagram id="rPt6qGE7lSrq65IT_Gxj" name="Architecture">
    <mxGraphModel dx="1108" dy="828" grid="1" gridSize="10" guides="1" tooltips="1" connect="1" arrows="1" fold="1" page="1" pageScale="1" pageWidth="827" pageHeight="1169" math="0" shadow="0">
      <root>
        <mxCell id="0" />
        <mxCell id="1" parent="0" />
        <mxCell id="qlzmmNjlw-NgEVrXtKq5-13" value="" style="rounded=0;whiteSpace=wrap;html=1;dashed=1;" parent="1" vertex="1">
          <mxGeometry x="174.63" y="492.58" width="625" height="757.42" as="geometry" />
        </mxCell>
        <mxCell id="jzi4S84dbcQ6XCPYerlt-37" value="" style="rounded=0;whiteSpace=wrap;html=1;dashed=1;" parent="1" vertex="1">
          <mxGeometry x="174.63" y="340" width="435.37" height="130" as="geometry" />
        </mxCell>
        <mxCell id="jzi4S84dbcQ6XCPYerlt-15" value="" style="rounded=0;whiteSpace=wrap;html=1;dashed=1;" parent="1" vertex="1">
          <mxGeometry x="37.379999999999995" y="340" width="110" height="910" as="geometry" />
        </mxCell>
        <mxCell id="cnMRPB2jEunF0C_jdwBA-22" style="edgeStyle=orthogonalEdgeStyle;shape=connector;rounded=0;jumpSize=5;orthogonalLoop=1;jettySize=auto;html=1;strokeColor=default;strokeWidth=2;align=center;verticalAlign=middle;fontFamily=Helvetica;fontSize=11;fontColor=default;labelBackgroundColor=default;endArrow=classic;endFill=1;" parent="1" source="2CXdrX7ZxKp920rr_Y1--1" target="qlzmmNjlw-NgEVrXtKq5-13" edge="1">
          <mxGeometry relative="1" as="geometry">
            <Array as="points">
              <mxPoint x="495" y="475" />
              <mxPoint x="494" y="475" />
            </Array>
            <mxPoint x="532.63" y="480" as="targetPoint" />
          </mxGeometry>
        </mxCell>
        <mxCell id="cnMRPB2jEunF0C_jdwBA-29" value="controls" style="edgeLabel;html=1;align=center;verticalAlign=middle;resizable=0;points=[];fontFamily=Helvetica;fontSize=11;fontColor=default;labelBackgroundColor=default;" parent="cnMRPB2jEunF0C_jdwBA-22" vertex="1" connectable="0">
          <mxGeometry x="-0.3776" y="1" relative="1" as="geometry">
            <mxPoint x="31" y="13" as="offset" />
          </mxGeometry>
        </mxCell>
        <mxCell id="cnMRPB2jEunF0C_jdwBA-23" value="controls" style="edgeStyle=orthogonalEdgeStyle;shape=connector;rounded=0;jumpSize=5;orthogonalLoop=1;jettySize=auto;html=1;strokeColor=default;strokeWidth=2;align=center;verticalAlign=middle;fontFamily=Helvetica;fontSize=11;fontColor=default;labelBackgroundColor=default;endArrow=classic;endFill=1;" parent="1" source="2CXdrX7ZxKp920rr_Y1--1" target="2CXdrX7ZxKp920rr_Y1--29" edge="1">
          <mxGeometry x="0.1052" y="-15" relative="1" as="geometry">
            <mxPoint as="offset" />
          </mxGeometry>
        </mxCell>
        <mxCell id="3ko9Bq9Q6lJ8N-O4LBVZ-2" value="outputs" style="edgeStyle=orthogonalEdgeStyle;shape=connector;rounded=0;jumpSize=5;orthogonalLoop=1;jettySize=auto;html=1;strokeColor=default;strokeWidth=2;align=center;verticalAlign=middle;fontFamily=Helvetica;fontSize=11;fontColor=default;labelBackgroundColor=default;endArrow=classic;endFill=1;" parent="1" source="2CXdrX7ZxKp920rr_Y1--3" edge="1">
          <mxGeometry x="0.0528" y="-29" relative="1" as="geometry">
            <Array as="points">
              <mxPoint x="185" y="574" />
              <mxPoint x="185" y="523" />
            </Array>
            <mxPoint as="offset" />
            <mxPoint x="119.63" y="523.025641025641" as="targetPoint" />
            <mxPoint x="204.63" y="574.5128205128206" as="sourcePoint" />
          </mxGeometry>
        </mxCell>
        <mxCell id="2CXdrX7ZxKp920rr_Y1--28" value="retrieves" style="edgeStyle=orthogonalEdgeStyle;shape=connector;rounded=0;jumpSize=5;orthogonalLoop=1;jettySize=auto;html=1;strokeColor=default;strokeWidth=2;align=center;verticalAlign=middle;fontFamily=Helvetica;fontSize=11;fontColor=default;labelBackgroundColor=default;endArrow=classic;endFill=1;entryX=0.5;entryY=0;entryDx=0;entryDy=0;" parent="1" source="qlzmmNjlw-NgEVrXtKq5-2" target="3ko9Bq9Q6lJ8N-O4LBVZ-15" edge="1">
          <mxGeometry x="-0.0376" y="10" relative="1" as="geometry">
            <mxPoint as="offset" />
            <Array as="points">
              <mxPoint x="699" y="940" />
              <mxPoint x="602" y="940" />
            </Array>
          </mxGeometry>
        </mxCell>
        <mxCell id="cnMRPB2jEunF0C_jdwBA-2" value="uses" style="edgeStyle=orthogonalEdgeStyle;shape=connector;rounded=0;jumpSize=5;orthogonalLoop=1;jettySize=auto;html=1;strokeColor=default;strokeWidth=2;align=center;verticalAlign=middle;fontFamily=Helvetica;fontSize=11;fontColor=default;labelBackgroundColor=default;endArrow=classic;endFill=1;" parent="1" source="2CXdrX7ZxKp920rr_Y1--4" target="Sa7oayYF3XSetd4DU2Fg-19" edge="1">
          <mxGeometry x="0.2326" y="12" relative="1" as="geometry">
            <mxPoint as="offset" />
          </mxGeometry>
        </mxCell>
        <mxCell id="cnMRPB2jEunF0C_jdwBA-12" value="created with" style="edgeStyle=orthogonalEdgeStyle;shape=connector;rounded=0;jumpSize=5;orthogonalLoop=1;jettySize=auto;html=1;strokeColor=default;strokeWidth=2;align=center;verticalAlign=middle;fontFamily=Helvetica;fontSize=11;fontColor=default;labelBackgroundColor=default;endArrow=classic;endFill=1;" parent="1" source="2CXdrX7ZxKp920rr_Y1--5" target="cnMRPB2jEunF0C_jdwBA-4" edge="1">
          <mxGeometry x="-0.095" y="-10" relative="1" as="geometry">
            <mxPoint x="528.63" y="1056.04" as="sourcePoint" />
            <mxPoint as="offset" />
            <mxPoint x="363.63" y="1113" as="targetPoint" />
            <Array as="points">
              <mxPoint x="505" y="1240" />
              <mxPoint x="200" y="1240" />
              <mxPoint x="200" y="1158" />
            </Array>
          </mxGeometry>
        </mxCell>
        <mxCell id="cnMRPB2jEunF0C_jdwBA-37" value="generates" style="edgeStyle=orthogonalEdgeStyle;shape=connector;rounded=0;jumpSize=5;orthogonalLoop=1;jettySize=auto;html=1;strokeColor=default;strokeWidth=2;align=center;verticalAlign=middle;fontFamily=Helvetica;fontSize=11;fontColor=default;labelBackgroundColor=default;endArrow=classic;endFill=1;" parent="1" source="2CXdrX7ZxKp920rr_Y1--29" target="cnMRPB2jEunF0C_jdwBA-36" edge="1">
          <mxGeometry x="-0.185" y="-12" relative="1" as="geometry">
            <mxPoint x="232.63" y="415" as="sourcePoint" />
            <mxPoint as="offset" />
          </mxGeometry>
        </mxCell>
        <mxCell id="cnMRPB2jEunF0C_jdwBA-14" value="creates" style="edgeStyle=orthogonalEdgeStyle;shape=connector;rounded=0;jumpSize=5;orthogonalLoop=1;jettySize=auto;html=1;strokeColor=default;strokeWidth=2;align=center;verticalAlign=middle;fontFamily=Helvetica;fontSize=11;fontColor=default;labelBackgroundColor=default;endArrow=classic;endFill=1;" parent="1" source="jzi4S84dbcQ6XCPYerlt-2" target="Sa7oayYF3XSetd4DU2Fg-3" edge="1">
          <mxGeometry x="0.0679" y="-20" relative="1" as="geometry">
            <mxPoint as="offset" />
            <Array as="points">
              <mxPoint x="164.63" y="850" />
              <mxPoint x="164.63" y="701" />
            </Array>
          </mxGeometry>
        </mxCell>
        <mxCell id="cnMRPB2jEunF0C_jdwBA-15" value="creates" style="edgeStyle=orthogonalEdgeStyle;shape=connector;rounded=0;jumpSize=5;orthogonalLoop=1;jettySize=auto;html=1;strokeColor=default;strokeWidth=2;align=center;verticalAlign=middle;fontFamily=Helvetica;fontSize=11;fontColor=default;labelBackgroundColor=default;endArrow=classic;endFill=1;" parent="1" source="Sa7oayYF3XSetd4DU2Fg-14" target="cnMRPB2jEunF0C_jdwBA-4" edge="1">
          <mxGeometry x="-0.4888" y="-10" relative="1" as="geometry">
            <Array as="points">
              <mxPoint x="95" y="1100" />
            </Array>
            <mxPoint as="offset" />
          </mxGeometry>
        </mxCell>
        <mxCell id="Sa7oayYF3XSetd4DU2Fg-17" value="Raw Data" style="text;html=1;align=center;verticalAlign=middle;resizable=0;points=[];autosize=1;strokeColor=none;fillColor=none;fontFamily=Helvetica;fontSize=11;fontColor=default;labelBackgroundColor=default;fontStyle=1" parent="1" vertex="1">
          <mxGeometry x="59.629999999999995" y="1015" width="70" height="30" as="geometry" />
        </mxCell>
        <mxCell id="9nrLMy0eK1dV_v98iFay-8" style="edgeStyle=orthogonalEdgeStyle;shape=connector;rounded=0;jumpSize=5;orthogonalLoop=1;jettySize=auto;html=1;strokeColor=default;strokeWidth=2;align=center;verticalAlign=middle;fontFamily=Helvetica;fontSize=11;fontColor=default;labelBackgroundColor=default;endArrow=classic;endFill=1;" parent="1" source="cnMRPB2jEunF0C_jdwBA-1" target="2CXdrX7ZxKp920rr_Y1--1" edge="1">
          <mxGeometry relative="1" as="geometry" />
        </mxCell>
        <mxCell id="cnMRPB2jEunF0C_jdwBA-1" value="" style="shape=umlActor;verticalLabelPosition=bottom;verticalAlign=top;html=1;outlineConnect=0;fontStyle=1" parent="1" vertex="1">
          <mxGeometry x="644.63" y="385" width="30" height="50" as="geometry" />
        </mxCell>
        <mxCell id="cnMRPB2jEunF0C_jdwBA-4" value="" style="shape=cylinder3;whiteSpace=wrap;html=1;boundedLbl=1;backgroundOutline=1;size=15;fontFamily=Helvetica;fontSize=11;fontColor=default;labelBackgroundColor=default;" parent="1" vertex="1">
          <mxGeometry x="67.38" y="1125" width="50" height="65" as="geometry" />
        </mxCell>
        <mxCell id="cnMRPB2jEunF0C_jdwBA-5" value="Publication&amp;nbsp;&lt;div&gt;Dataset&lt;/div&gt;" style="text;html=1;align=center;verticalAlign=middle;resizable=0;points=[];autosize=1;strokeColor=none;fillColor=none;fontFamily=Helvetica;fontSize=11;fontColor=default;labelBackgroundColor=default;fontStyle=1" parent="1" vertex="1">
          <mxGeometry x="52.379999999999995" y="1190" width="80" height="40" as="geometry" />
        </mxCell>
        <mxCell id="cnMRPB2jEunF0C_jdwBA-16" value="loads" style="edgeStyle=orthogonalEdgeStyle;shape=connector;rounded=0;jumpSize=5;orthogonalLoop=1;jettySize=auto;html=1;strokeColor=default;strokeWidth=2;align=center;verticalAlign=middle;fontFamily=Helvetica;fontSize=11;fontColor=default;labelBackgroundColor=default;endArrow=classic;endFill=1;" parent="1" source="Sa7oayYF3XSetd4DU2Fg-14" target="LiU3GGamYUb34kK2klM--8" edge="1">
          <mxGeometry x="0.02" y="-10" relative="1" as="geometry">
            <mxPoint as="offset" />
            <mxPoint x="64.63" y="1297" as="targetPoint" />
            <Array as="points">
              <mxPoint x="280" y="990" />
            </Array>
          </mxGeometry>
        </mxCell>
        <mxCell id="cnMRPB2jEunF0C_jdwBA-34" value="User" style="text;html=1;align=center;verticalAlign=middle;resizable=0;points=[];autosize=1;strokeColor=none;fillColor=none;fontFamily=Helvetica;fontSize=11;fontColor=default;labelBackgroundColor=default;fontStyle=1" parent="1" vertex="1">
          <mxGeometry x="674.63" y="395" width="50" height="30" as="geometry" />
        </mxCell>
        <mxCell id="cnMRPB2jEunF0C_jdwBA-36" value="Config&lt;div&gt;&lt;br&gt;&lt;/div&gt;" style="shape=note;whiteSpace=wrap;html=1;backgroundOutline=1;darkOpacity=0.05;fontFamily=Helvetica;fontSize=11;fontColor=default;labelBackgroundColor=default;size=15;verticalAlign=bottom;" parent="1" vertex="1">
          <mxGeometry x="67.38" y="385" width="50" height="50" as="geometry" />
        </mxCell>
        <mxCell id="3ko9Bq9Q6lJ8N-O4LBVZ-19" style="edgeStyle=orthogonalEdgeStyle;shape=connector;rounded=0;jumpSize=5;orthogonalLoop=1;jettySize=auto;html=1;strokeColor=default;strokeWidth=2;align=center;verticalAlign=middle;fontFamily=Helvetica;fontSize=11;fontColor=default;labelBackgroundColor=default;endArrow=classic;endFill=1;" parent="1" source="3ko9Bq9Q6lJ8N-O4LBVZ-3" target="cnMRPB2jEunF0C_jdwBA-4" edge="1">
          <mxGeometry relative="1" as="geometry">
            <Array as="points">
              <mxPoint x="702" y="1240" />
              <mxPoint x="200" y="1240" />
              <mxPoint x="200" y="1158" />
            </Array>
          </mxGeometry>
        </mxCell>
        <mxCell id="9nrLMy0eK1dV_v98iFay-1" value="" style="group" parent="1" vertex="1" connectable="0">
          <mxGeometry x="414.63" y="830" width="150" height="90" as="geometry" />
        </mxCell>
        <mxCell id="Sa7oayYF3XSetd4DU2Fg-19" value="Language Model" style="rounded=1;whiteSpace=wrap;html=1;fontSize=12;glass=0;strokeWidth=1;shadow=0;fontStyle=1;verticalAlign=top;" parent="9nrLMy0eK1dV_v98iFay-1" vertex="1">
          <mxGeometry width="150" height="90" as="geometry" />
        </mxCell>
        <mxCell id="Sa7oayYF3XSetd4DU2Fg-20" value="LLM Provider" style="rounded=0;whiteSpace=wrap;html=1;fontSize=12;glass=0;strokeWidth=1;shadow=0;" parent="9nrLMy0eK1dV_v98iFay-1" vertex="1">
          <mxGeometry x="15" y="35" width="120" height="40" as="geometry" />
        </mxCell>
        <mxCell id="jjpuZa0CO3F1y8QrTsXN-3" value="LLM Config" style="shape=note;whiteSpace=wrap;html=1;backgroundOutline=1;darkOpacity=0.05;fontFamily=Helvetica;fontSize=11;fontColor=default;labelBackgroundColor=none;size=15;verticalAlign=bottom;" parent="9nrLMy0eK1dV_v98iFay-1" vertex="1">
          <mxGeometry x="125.37" y="-16" width="54.63" height="42" as="geometry" />
        </mxCell>
        <mxCell id="LiU3GGamYUb34kK2klM--8" value="" style="shape=cylinder3;whiteSpace=wrap;html=1;boundedLbl=1;backgroundOutline=1;size=15;fontFamily=Helvetica;fontSize=11;fontColor=default;labelBackgroundColor=default;" parent="1" vertex="1">
          <mxGeometry x="69.63" y="950" width="50" height="65" as="geometry" />
        </mxCell>
        <mxCell id="jzi4S84dbcQ6XCPYerlt-1" value="" style="group" parent="1" vertex="1" connectable="0">
          <mxGeometry x="204.63" y="780" width="180" height="170" as="geometry" />
        </mxCell>
        <mxCell id="jzi4S84dbcQ6XCPYerlt-2" value="QA-&lt;div&gt;Generator&lt;/div&gt;" style="rounded=1;whiteSpace=wrap;html=1;fontSize=12;glass=0;strokeWidth=1;shadow=0;fontStyle=1;verticalAlign=top;" parent="jzi4S84dbcQ6XCPYerlt-1" vertex="1">
          <mxGeometry y="18.88888888888889" width="144" height="151.11111111111111" as="geometry" />
        </mxCell>
        <mxCell id="jzi4S84dbcQ6XCPYerlt-4" value="QAGeneration Strategy" style="rounded=0;whiteSpace=wrap;html=1;fontSize=12;glass=0;strokeWidth=1;shadow=0;" parent="jzi4S84dbcQ6XCPYerlt-1" vertex="1">
          <mxGeometry x="18" y="113.33333333333333" width="108" height="37.77777777777778" as="geometry" />
        </mxCell>
        <mxCell id="jzi4S84dbcQ6XCPYerlt-5" value="QA&lt;div&gt;Generation Config&lt;/div&gt;" style="shape=note;whiteSpace=wrap;html=1;backgroundOutline=1;darkOpacity=0.05;fontFamily=Helvetica;fontSize=11;fontColor=default;labelBackgroundColor=none;size=15;verticalAlign=bottom;" parent="jzi4S84dbcQ6XCPYerlt-1" vertex="1">
          <mxGeometry x="108" width="55.636363636363626" height="47.22222222222222" as="geometry" />
        </mxCell>
        <mxCell id="jzi4S84dbcQ6XCPYerlt-11" value="KGQA-Generator" style="rounded=0;whiteSpace=wrap;html=1;fontSize=12;glass=0;strokeWidth=1;shadow=0;" parent="jzi4S84dbcQ6XCPYerlt-1" vertex="1">
          <mxGeometry x="18" y="66.11111111111111" width="108" height="37.77777777777778" as="geometry" />
        </mxCell>
        <mxCell id="jzi4S84dbcQ6XCPYerlt-13" value="" style="group" parent="1" vertex="1" connectable="0">
          <mxGeometry x="210" y="1260" width="592" height="80" as="geometry" />
        </mxCell>
        <mxCell id="LiU3GGamYUb34kK2klM--26" value="" style="rounded=0;whiteSpace=wrap;html=1;dashed=1;" parent="jzi4S84dbcQ6XCPYerlt-13" vertex="1">
          <mxGeometry x="-35" width="627" height="80" as="geometry" />
        </mxCell>
        <mxCell id="LiU3GGamYUb34kK2klM--2" value="" style="rounded=1;whiteSpace=wrap;html=1;" parent="jzi4S84dbcQ6XCPYerlt-13" vertex="1">
          <mxGeometry x="82" y="15" width="70" height="30" as="geometry" />
        </mxCell>
        <mxCell id="LiU3GGamYUb34kK2klM--3" value="" style="rounded=0;whiteSpace=wrap;html=1;" parent="jzi4S84dbcQ6XCPYerlt-13" vertex="1">
          <mxGeometry x="177" y="15" width="70" height="30" as="geometry" />
        </mxCell>
        <mxCell id="LiU3GGamYUb34kK2klM--4" value="Component" style="text;html=1;align=center;verticalAlign=middle;resizable=0;points=[];autosize=1;strokeColor=none;fillColor=none;" parent="jzi4S84dbcQ6XCPYerlt-13" vertex="1">
          <mxGeometry x="72" y="50" width="90" height="30" as="geometry" />
        </mxCell>
        <mxCell id="LiU3GGamYUb34kK2klM--5" value="Class" style="text;html=1;align=center;verticalAlign=middle;resizable=0;points=[];autosize=1;strokeColor=none;fillColor=none;" parent="jzi4S84dbcQ6XCPYerlt-13" vertex="1">
          <mxGeometry x="187" y="50" width="50" height="30" as="geometry" />
        </mxCell>
        <mxCell id="LiU3GGamYUb34kK2klM--9" value="" style="shape=cylinder3;whiteSpace=wrap;html=1;boundedLbl=1;backgroundOutline=1;size=7.7241800242456975;fontFamily=Helvetica;fontSize=11;fontColor=default;labelBackgroundColor=default;" parent="jzi4S84dbcQ6XCPYerlt-13" vertex="1">
          <mxGeometry x="272" y="10" width="40" height="40" as="geometry" />
        </mxCell>
        <mxCell id="LiU3GGamYUb34kK2klM--10" value="Data" style="text;html=1;align=center;verticalAlign=middle;resizable=0;points=[];autosize=1;strokeColor=none;fillColor=none;" parent="jzi4S84dbcQ6XCPYerlt-13" vertex="1">
          <mxGeometry x="267" y="50" width="50" height="30" as="geometry" />
        </mxCell>
        <mxCell id="LiU3GGamYUb34kK2klM--11" value="" style="edgeStyle=orthogonalEdgeStyle;shape=connector;rounded=0;jumpSize=5;orthogonalLoop=1;jettySize=auto;html=1;strokeColor=default;strokeWidth=2;align=center;verticalAlign=middle;fontFamily=Helvetica;fontSize=11;fontColor=default;labelBackgroundColor=default;endArrow=classic;endFill=1;" parent="jzi4S84dbcQ6XCPYerlt-13" edge="1">
          <mxGeometry x="0.1489" y="-15" relative="1" as="geometry">
            <mxPoint x="402" y="29.820000000000164" as="sourcePoint" />
            <mxPoint as="offset" />
            <mxPoint x="342" y="29.820000000000164" as="targetPoint" />
          </mxGeometry>
        </mxCell>
        <mxCell id="LiU3GGamYUb34kK2klM--12" value="Interaction" style="text;html=1;align=center;verticalAlign=middle;resizable=0;points=[];autosize=1;strokeColor=none;fillColor=none;" parent="jzi4S84dbcQ6XCPYerlt-13" vertex="1">
          <mxGeometry x="332" y="50" width="80" height="30" as="geometry" />
        </mxCell>
        <mxCell id="LiU3GGamYUb34kK2klM--20" value="" style="html=1;shadow=0;dashed=0;align=center;verticalAlign=middle;shape=mxgraph.arrows2.arrow;dy=0;dx=21.45;notch=21.76;fontFamily=Helvetica;fontSize=11;fontColor=default;labelBackgroundColor=default;" parent="jzi4S84dbcQ6XCPYerlt-13" vertex="1">
          <mxGeometry x="422" y="17.5" width="70" height="25" as="geometry" />
        </mxCell>
        <mxCell id="LiU3GGamYUb34kK2klM--21" value="Pipeline step" style="text;html=1;align=center;verticalAlign=middle;resizable=0;points=[];autosize=1;strokeColor=none;fillColor=none;" parent="jzi4S84dbcQ6XCPYerlt-13" vertex="1">
          <mxGeometry x="410" y="50" width="90" height="30" as="geometry" />
        </mxCell>
        <mxCell id="LiU3GGamYUb34kK2klM--22" value="&lt;div&gt;&lt;br&gt;&lt;/div&gt;" style="shape=note;whiteSpace=wrap;html=1;backgroundOutline=1;darkOpacity=0.05;fontFamily=Helvetica;fontSize=11;fontColor=default;labelBackgroundColor=default;size=15;verticalAlign=bottom;" parent="jzi4S84dbcQ6XCPYerlt-13" vertex="1">
          <mxGeometry x="522" y="10" width="40" height="40" as="geometry" />
        </mxCell>
        <mxCell id="LiU3GGamYUb34kK2klM--24" value="Configuration" style="text;html=1;align=center;verticalAlign=middle;resizable=0;points=[];autosize=1;strokeColor=none;fillColor=none;" parent="jzi4S84dbcQ6XCPYerlt-13" vertex="1">
          <mxGeometry x="499" y="50" width="90" height="30" as="geometry" />
        </mxCell>
        <mxCell id="jzi4S84dbcQ6XCPYerlt-29" value="Artifacts" style="text;html=1;align=center;verticalAlign=middle;resizable=0;points=[];autosize=1;strokeColor=none;fillColor=none;fontStyle=1" parent="1" vertex="1">
          <mxGeometry x="37.379999999999995" y="340" width="70" height="30" as="geometry" />
        </mxCell>
        <mxCell id="jzi4S84dbcQ6XCPYerlt-30" value="" style="group" parent="1" vertex="1" connectable="0">
          <mxGeometry x="64.63" y="490" width="60" height="95" as="geometry" />
        </mxCell>
        <mxCell id="LiU3GGamYUb34kK2klM--6" value="" style="shape=cylinder3;whiteSpace=wrap;html=1;boundedLbl=1;backgroundOutline=1;size=15;fontFamily=Helvetica;fontSize=11;fontColor=default;labelBackgroundColor=default;" parent="jzi4S84dbcQ6XCPYerlt-30" vertex="1">
          <mxGeometry x="5" width="50" height="65" as="geometry" />
        </mxCell>
        <mxCell id="LiU3GGamYUb34kK2klM--7" value="Metrics" style="text;html=1;align=center;verticalAlign=middle;resizable=0;points=[];autosize=1;strokeColor=none;fillColor=none;fontStyle=1" parent="jzi4S84dbcQ6XCPYerlt-30" vertex="1">
          <mxGeometry y="65" width="60" height="30" as="geometry" />
        </mxCell>
        <mxCell id="jzi4S84dbcQ6XCPYerlt-31" value="" style="group" parent="1" vertex="1" connectable="0">
          <mxGeometry x="62.379999999999995" y="668" width="60" height="106" as="geometry" />
        </mxCell>
        <mxCell id="Sa7oayYF3XSetd4DU2Fg-3" value="" style="shape=cylinder3;whiteSpace=wrap;html=1;boundedLbl=1;backgroundOutline=1;size=15;fontFamily=Helvetica;fontSize=11;fontColor=default;labelBackgroundColor=default;" parent="jzi4S84dbcQ6XCPYerlt-31" vertex="1">
          <mxGeometry x="5" width="50" height="65" as="geometry" />
        </mxCell>
        <mxCell id="Sa7oayYF3XSetd4DU2Fg-4" value="QA&amp;nbsp;&lt;div&gt;Dataset&lt;/div&gt;" style="text;html=1;align=center;verticalAlign=middle;resizable=0;points=[];autosize=1;strokeColor=none;fillColor=none;fontFamily=Helvetica;fontSize=11;fontColor=default;labelBackgroundColor=default;fontStyle=1" parent="jzi4S84dbcQ6XCPYerlt-31" vertex="1">
          <mxGeometry y="66" width="60" height="40" as="geometry" />
        </mxCell>
        <mxCell id="jzi4S84dbcQ6XCPYerlt-38" value="Frontend" style="text;html=1;align=center;verticalAlign=middle;resizable=0;points=[];autosize=1;strokeColor=none;fillColor=none;fontStyle=1" parent="1" vertex="1">
          <mxGeometry x="174.63" y="340" width="70" height="30" as="geometry" />
        </mxCell>
        <mxCell id="qlzmmNjlw-NgEVrXtKq5-4" value="uses" style="edgeStyle=orthogonalEdgeStyle;shape=connector;rounded=0;jumpSize=5;orthogonalLoop=1;jettySize=auto;html=1;strokeColor=default;strokeWidth=2;align=center;verticalAlign=middle;fontFamily=Helvetica;fontSize=11;fontColor=default;labelBackgroundColor=default;endArrow=classic;endFill=1;" parent="1" source="2CXdrX7ZxKp920rr_Y1--4" target="qlzmmNjlw-NgEVrXtKq5-2" edge="1">
          <mxGeometry x="-0.42" y="12" relative="1" as="geometry">
            <Array as="points">
              <mxPoint x="554.63" y="802" />
              <mxPoint x="698.63" y="802" />
            </Array>
            <mxPoint as="offset" />
            <mxPoint x="474.63" y="632" as="sourcePoint" />
            <mxPoint x="474.63" y="674" as="targetPoint" />
          </mxGeometry>
        </mxCell>
        <mxCell id="qlzmmNjlw-NgEVrXtKq5-5" value="uses" style="edgeStyle=orthogonalEdgeStyle;shape=connector;rounded=0;jumpSize=5;orthogonalLoop=1;jettySize=auto;html=1;strokeColor=default;strokeWidth=2;align=center;verticalAlign=middle;fontFamily=Helvetica;fontSize=11;fontColor=default;labelBackgroundColor=default;endArrow=classic;endFill=1;" parent="1" source="qlzmmNjlw-NgEVrXtKq5-2" target="Sa7oayYF3XSetd4DU2Fg-19" edge="1">
          <mxGeometry x="0.0879" y="16" relative="1" as="geometry">
            <Array as="points" />
            <mxPoint as="offset" />
            <mxPoint x="469.63" y="784" as="sourcePoint" />
            <mxPoint x="481.63" y="845" as="targetPoint" />
          </mxGeometry>
        </mxCell>
        <mxCell id="qlzmmNjlw-NgEVrXtKq5-6" value="uses" style="edgeStyle=orthogonalEdgeStyle;shape=connector;rounded=0;jumpSize=5;orthogonalLoop=1;jettySize=auto;html=1;strokeColor=default;strokeWidth=2;align=center;verticalAlign=middle;fontFamily=Helvetica;fontSize=11;fontColor=default;labelBackgroundColor=default;endArrow=classic;endFill=1;" parent="1" source="jzi4S84dbcQ6XCPYerlt-2" target="Sa7oayYF3XSetd4DU2Fg-19" edge="1">
          <mxGeometry x="-0.057" y="14" relative="1" as="geometry">
            <mxPoint as="offset" />
            <mxPoint x="469.63" y="784" as="sourcePoint" />
            <mxPoint x="499.63" y="840" as="targetPoint" />
          </mxGeometry>
        </mxCell>
        <mxCell id="qlzmmNjlw-NgEVrXtKq5-10" value="" style="group" parent="1" vertex="1" connectable="0">
          <mxGeometry x="214.63" y="365" width="150" height="90" as="geometry" />
        </mxCell>
        <mxCell id="2CXdrX7ZxKp920rr_Y1--29" value="Configuration" style="rounded=1;whiteSpace=wrap;html=1;fontSize=12;glass=0;strokeWidth=1;shadow=0;fontStyle=1;verticalAlign=top;" parent="qlzmmNjlw-NgEVrXtKq5-10" vertex="1">
          <mxGeometry width="150" height="90" as="geometry" />
        </mxCell>
        <mxCell id="dY7fuBo2P4f8q5PI3-VB-1" value="Configuration Manager" style="rounded=0;whiteSpace=wrap;html=1;fontSize=12;glass=0;strokeWidth=1;shadow=0;" parent="qlzmmNjlw-NgEVrXtKq5-10" vertex="1">
          <mxGeometry x="13" y="30" width="120" height="40" as="geometry" />
        </mxCell>
        <mxCell id="qlzmmNjlw-NgEVrXtKq5-11" value="" style="group" parent="1" vertex="1" connectable="0">
          <mxGeometry x="414.63" y="365" width="160" height="90" as="geometry" />
        </mxCell>
        <mxCell id="2CXdrX7ZxKp920rr_Y1--1" value="App" style="rounded=1;whiteSpace=wrap;html=1;fontSize=12;glass=0;strokeWidth=1;shadow=0;fontStyle=1;verticalAlign=top;" parent="qlzmmNjlw-NgEVrXtKq5-11" vertex="1">
          <mxGeometry width="160" height="90" as="geometry" />
        </mxCell>
        <mxCell id="Sa7oayYF3XSetd4DU2Fg-21" value="CLI Controller" style="rounded=0;whiteSpace=wrap;html=1;fontSize=12;glass=0;strokeWidth=1;shadow=0;" parent="qlzmmNjlw-NgEVrXtKq5-11" vertex="1">
          <mxGeometry x="20" y="32.5" width="120" height="40" as="geometry" />
        </mxCell>
        <mxCell id="cnMRPB2jEunF0C_jdwBA-13" value="uses" style="edgeStyle=orthogonalEdgeStyle;shape=connector;rounded=0;jumpSize=5;orthogonalLoop=1;jettySize=auto;html=1;strokeColor=default;strokeWidth=2;align=center;verticalAlign=middle;fontFamily=Helvetica;fontSize=11;fontColor=default;labelBackgroundColor=default;endArrow=classic;endFill=1;" parent="1" source="2CXdrX7ZxKp920rr_Y1--3" target="Sa7oayYF3XSetd4DU2Fg-3" edge="1">
          <mxGeometry x="-0.0831" y="-10" relative="1" as="geometry">
            <Array as="points">
              <mxPoint x="92.63" y="600" />
            </Array>
            <mxPoint as="offset" />
            <mxPoint x="314.63" y="640" as="targetPoint" />
          </mxGeometry>
        </mxCell>
        <mxCell id="LiU3GGamYUb34kK2klM--25" value="&lt;b&gt;Legend&lt;/b&gt;" style="text;html=1;align=center;verticalAlign=middle;resizable=0;points=[];autosize=1;strokeColor=none;fillColor=none;" parent="1" vertex="1">
          <mxGeometry x="175" y="1260" width="70" height="30" as="geometry" />
        </mxCell>
        <mxCell id="2CXdrX7ZxKp920rr_Y1--5" value="Knowledge Graph&amp;nbsp;&lt;div&gt;Base&lt;/div&gt;" style="rounded=1;whiteSpace=wrap;html=1;fontSize=12;glass=0;strokeWidth=1;shadow=0;fontStyle=1;verticalAlign=top;" parent="1" vertex="1">
          <mxGeometry x="424.63" y="1032" width="160" height="188" as="geometry" />
        </mxCell>
        <mxCell id="2CXdrX7ZxKp920rr_Y1--24" style="shape=connector;rounded=0;orthogonalLoop=1;jettySize=auto;html=1;strokeColor=default;strokeWidth=1;align=center;verticalAlign=middle;fontFamily=Helvetica;fontSize=11;fontColor=default;labelBackgroundColor=default;endArrow=open;endFill=0;jumpSize=5;" parent="1" source="2CXdrX7ZxKp920rr_Y1--20" target="2CXdrX7ZxKp920rr_Y1--21" edge="1">
          <mxGeometry relative="1" as="geometry" />
        </mxCell>
        <mxCell id="2CXdrX7ZxKp920rr_Y1--25" style="edgeStyle=none;shape=connector;rounded=0;jumpSize=5;orthogonalLoop=1;jettySize=auto;html=1;strokeColor=default;strokeWidth=1;align=center;verticalAlign=middle;fontFamily=Helvetica;fontSize=11;fontColor=default;labelBackgroundColor=default;endArrow=open;endFill=0;" parent="1" source="2CXdrX7ZxKp920rr_Y1--20" target="2CXdrX7ZxKp920rr_Y1--23" edge="1">
          <mxGeometry relative="1" as="geometry" />
        </mxCell>
        <mxCell id="2CXdrX7ZxKp920rr_Y1--20" value="E1" style="ellipse;whiteSpace=wrap;html=1;fontFamily=Helvetica;fontSize=11;fontColor=default;labelBackgroundColor=default;" parent="1" vertex="1">
          <mxGeometry x="464.63" y="1075" width="30" height="20" as="geometry" />
        </mxCell>
        <mxCell id="2CXdrX7ZxKp920rr_Y1--21" value="E2" style="ellipse;whiteSpace=wrap;html=1;fontFamily=Helvetica;fontSize=11;fontColor=default;labelBackgroundColor=default;" parent="1" vertex="1">
          <mxGeometry x="524.63" y="1085" width="30" height="20" as="geometry" />
        </mxCell>
        <mxCell id="2CXdrX7ZxKp920rr_Y1--23" value="E3" style="ellipse;whiteSpace=wrap;html=1;fontFamily=Helvetica;fontSize=11;fontColor=default;labelBackgroundColor=default;" parent="1" vertex="1">
          <mxGeometry x="484.63" y="1115" width="30" height="20" as="geometry" />
        </mxCell>
        <mxCell id="2CXdrX7ZxKp920rr_Y1--26" value="Knowledge Graph" style="text;html=1;align=center;verticalAlign=middle;resizable=0;points=[];autosize=1;strokeColor=none;fillColor=none;fontFamily=Helvetica;fontSize=11;fontColor=default;labelBackgroundColor=default;fontStyle=1" parent="1" vertex="1">
          <mxGeometry x="449.63" y="1133" width="110" height="30" as="geometry" />
        </mxCell>
        <mxCell id="3ko9Bq9Q6lJ8N-O4LBVZ-3" value="Vector Store&amp;nbsp;&lt;div&gt;Base&lt;/div&gt;" style="rounded=1;whiteSpace=wrap;html=1;fontSize=12;glass=0;strokeWidth=1;shadow=0;fontStyle=1;verticalAlign=top;" parent="1" vertex="1">
          <mxGeometry x="626.63" y="1033" width="150" height="187" as="geometry" />
        </mxCell>
        <mxCell id="3ko9Bq9Q6lJ8N-O4LBVZ-4" value="" style="shape=datastore;whiteSpace=wrap;html=1;fontFamily=Helvetica;fontSize=11;fontColor=default;labelBackgroundColor=default;" parent="1" vertex="1">
          <mxGeometry x="678.63" y="1079" width="46" height="51" as="geometry" />
        </mxCell>
        <mxCell id="3ko9Bq9Q6lJ8N-O4LBVZ-5" value="Vector Store" style="text;html=1;align=center;verticalAlign=middle;resizable=0;points=[];autosize=1;strokeColor=none;fillColor=none;fontFamily=Helvetica;fontSize=11;fontColor=default;labelBackgroundColor=default;fontStyle=1" parent="1" vertex="1">
          <mxGeometry x="661.63" y="1135" width="80" height="30" as="geometry" />
        </mxCell>
        <mxCell id="3ko9Bq9Q6lJ8N-O4LBVZ-12" value="KG Config" style="shape=note;whiteSpace=wrap;html=1;backgroundOutline=1;darkOpacity=0.05;fontFamily=Helvetica;fontSize=11;fontColor=default;labelBackgroundColor=default;size=15;verticalAlign=bottom;" parent="1" vertex="1">
          <mxGeometry x="564.63" y="1013" width="50" height="50" as="geometry" />
        </mxCell>
        <mxCell id="3ko9Bq9Q6lJ8N-O4LBVZ-13" value="Knowledge Graph Manager" style="rounded=0;whiteSpace=wrap;html=1;fontSize=12;glass=0;strokeWidth=1;shadow=0;" parent="1" vertex="1">
          <mxGeometry x="444.63" y="1166.5" width="120" height="40" as="geometry" />
        </mxCell>
        <mxCell id="3ko9Bq9Q6lJ8N-O4LBVZ-14" value="Vector Store&amp;nbsp;&lt;div&gt;Manager&lt;/div&gt;" style="rounded=0;whiteSpace=wrap;html=1;fontSize=12;glass=0;strokeWidth=1;shadow=0;" parent="1" vertex="1">
          <mxGeometry x="641.63" y="1166.5" width="120" height="40" as="geometry" />
        </mxCell>
        <mxCell id="2CXdrX7ZxKp920rr_Y1--27" value="Vec Config" style="shape=note;whiteSpace=wrap;html=1;backgroundOutline=1;darkOpacity=0.05;fontFamily=Helvetica;fontSize=11;fontColor=default;labelBackgroundColor=default;size=15;verticalAlign=bottom;" parent="1" vertex="1">
          <mxGeometry x="746.63" y="1013" width="52" height="50" as="geometry" />
        </mxCell>
        <mxCell id="3ko9Bq9Q6lJ8N-O4LBVZ-16" style="edgeStyle=orthogonalEdgeStyle;shape=connector;rounded=0;jumpSize=5;orthogonalLoop=1;jettySize=auto;html=1;strokeColor=default;strokeWidth=2;align=center;verticalAlign=middle;fontFamily=Helvetica;fontSize=11;fontColor=default;labelBackgroundColor=default;endArrow=classic;endFill=1;" parent="1" source="3ko9Bq9Q6lJ8N-O4LBVZ-15" target="3ko9Bq9Q6lJ8N-O4LBVZ-3" edge="1">
          <mxGeometry relative="1" as="geometry">
            <Array as="points">
              <mxPoint x="704.63" y="981" />
            </Array>
          </mxGeometry>
        </mxCell>
        <mxCell id="3ko9Bq9Q6lJ8N-O4LBVZ-17" style="edgeStyle=orthogonalEdgeStyle;shape=connector;rounded=0;jumpSize=5;orthogonalLoop=1;jettySize=auto;html=1;strokeColor=default;strokeWidth=2;align=center;verticalAlign=middle;fontFamily=Helvetica;fontSize=11;fontColor=default;labelBackgroundColor=default;endArrow=classic;endFill=1;" parent="1" source="3ko9Bq9Q6lJ8N-O4LBVZ-15" target="2CXdrX7ZxKp920rr_Y1--5" edge="1">
          <mxGeometry relative="1" as="geometry">
            <Array as="points">
              <mxPoint x="504.63" y="981" />
            </Array>
          </mxGeometry>
        </mxCell>
        <mxCell id="3ko9Bq9Q6lJ8N-O4LBVZ-15" value="" style="shape=orEllipse;perimeter=ellipsePerimeter;whiteSpace=wrap;html=1;backgroundOutline=1;fontFamily=Helvetica;fontSize=11;fontColor=default;labelBackgroundColor=default;strokeWidth=2;" parent="1" vertex="1">
          <mxGeometry x="587" y="966" width="30" height="30" as="geometry" />
        </mxCell>
        <mxCell id="3ko9Bq9Q6lJ8N-O4LBVZ-18" value="or" style="text;html=1;align=center;verticalAlign=middle;resizable=0;points=[];autosize=1;strokeColor=none;fillColor=none;fontFamily=Helvetica;fontSize=11;fontColor=default;labelBackgroundColor=default;" parent="1" vertex="1">
          <mxGeometry x="609.63" y="980" width="30" height="30" as="geometry" />
        </mxCell>
        <mxCell id="qlzmmNjlw-NgEVrXtKq5-1" value="" style="group" parent="1" vertex="1" connectable="0">
          <mxGeometry x="623.63" y="830" width="176" height="90" as="geometry" />
        </mxCell>
        <mxCell id="qlzmmNjlw-NgEVrXtKq5-2" value="Retrieval" style="rounded=1;whiteSpace=wrap;html=1;fontSize=12;glass=0;strokeWidth=1;shadow=0;fontStyle=1;verticalAlign=top;" parent="qlzmmNjlw-NgEVrXtKq5-1" vertex="1">
          <mxGeometry width="150" height="90" as="geometry" />
        </mxCell>
        <mxCell id="qlzmmNjlw-NgEVrXtKq5-3" value="Retriever" style="rounded=0;whiteSpace=wrap;html=1;fontSize=12;glass=0;strokeWidth=1;shadow=0;" parent="qlzmmNjlw-NgEVrXtKq5-1" vertex="1">
          <mxGeometry x="15" y="30" width="120" height="40" as="geometry" />
        </mxCell>
        <mxCell id="jjpuZa0CO3F1y8QrTsXN-2" value="Retrieval Config" style="shape=note;whiteSpace=wrap;html=1;backgroundOutline=1;darkOpacity=0.05;fontFamily=Helvetica;fontSize=11;fontColor=default;labelBackgroundColor=none;size=15;verticalAlign=bottom;" parent="qlzmmNjlw-NgEVrXtKq5-1" vertex="1">
          <mxGeometry x="111.37" y="-21" width="55" height="42" as="geometry" />
        </mxCell>
        <mxCell id="MCK5L93mM9xzwxzd5STt-23" value="uses" style="edgeStyle=orthogonalEdgeStyle;shape=connector;rounded=0;jumpSize=5;orthogonalLoop=1;jettySize=auto;html=1;strokeColor=default;strokeWidth=2;align=center;verticalAlign=middle;fontFamily=Helvetica;fontSize=11;fontColor=default;labelBackgroundColor=default;endArrow=classic;endFill=1;" parent="1" source="Sa7oayYF3XSetd4DU2Fg-14" target="Sa7oayYF3XSetd4DU2Fg-19" edge="1">
          <mxGeometry x="0.2044" y="14" relative="1" as="geometry">
            <mxPoint x="-10" y="4" as="offset" />
            <mxPoint x="359" y="884" as="sourcePoint" />
            <mxPoint x="425" y="885" as="targetPoint" />
            <Array as="points">
              <mxPoint x="410" y="1099" />
              <mxPoint x="410" y="950" />
              <mxPoint x="490" y="950" />
            </Array>
          </mxGeometry>
        </mxCell>
        <mxCell id="qlzmmNjlw-NgEVrXtKq5-8" value="uses" style="edgeStyle=orthogonalEdgeStyle;shape=connector;rounded=0;jumpSize=10;orthogonalLoop=1;jettySize=auto;html=1;strokeColor=default;strokeWidth=2;align=center;verticalAlign=middle;fontFamily=Helvetica;fontSize=11;fontColor=default;labelBackgroundColor=default;endArrow=classic;endFill=1;jumpStyle=arc;" parent="1" source="jzi4S84dbcQ6XCPYerlt-2" target="2CXdrX7ZxKp920rr_Y1--5" edge="1">
          <mxGeometry x="-0.2562" y="10" relative="1" as="geometry">
            <Array as="points">
              <mxPoint x="310" y="980" />
              <mxPoint x="470" y="980" />
            </Array>
            <mxPoint as="offset" />
            <mxPoint x="358.63" y="884" as="sourcePoint" />
            <mxPoint x="424.63" y="885" as="targetPoint" />
          </mxGeometry>
        </mxCell>
        <mxCell id="2CXdrX7ZxKp920rr_Y1--3" value="Experiment" style="rounded=1;whiteSpace=wrap;html=1;fontSize=12;glass=0;strokeWidth=1;shadow=0;fontStyle=1;verticalAlign=top;" parent="1" vertex="1">
          <mxGeometry x="244.63" y="526.3090909090909" width="440" height="91.54545454545455" as="geometry" />
        </mxCell>
        <mxCell id="Sa7oayYF3XSetd4DU2Fg-1" value="Experiment Runner" style="rounded=0;whiteSpace=wrap;html=1;fontSize=12;glass=0;strokeWidth=1;shadow=0;" parent="1" vertex="1">
          <mxGeometry x="264.63" y="560.0363636363636" width="120" height="38.54545454545455" as="geometry" />
        </mxCell>
        <mxCell id="Sa7oayYF3XSetd4DU2Fg-24" value="Experiment&amp;nbsp;&lt;div&gt;Visualizer&lt;/div&gt;" style="rounded=0;whiteSpace=wrap;html=1;fontSize=12;glass=0;strokeWidth=1;shadow=0;" parent="1" vertex="1">
          <mxGeometry x="404.63" y="560.0363636363636" width="120" height="38.54545454545455" as="geometry" />
        </mxCell>
        <mxCell id="Sa7oayYF3XSetd4DU2Fg-25" value="Evaluator(s)" style="rounded=0;whiteSpace=wrap;html=1;fontSize=12;glass=0;strokeWidth=1;shadow=0;" parent="1" vertex="1">
          <mxGeometry x="544.63" y="560.0363636363636" width="120" height="38.54545454545455" as="geometry" />
        </mxCell>
        <mxCell id="cnMRPB2jEunF0C_jdwBA-11" value="Experiment Config" style="shape=note;whiteSpace=wrap;html=1;backgroundOutline=1;darkOpacity=0.05;fontFamily=Helvetica;fontSize=11;fontColor=default;labelBackgroundColor=default;size=15;verticalAlign=bottom;" parent="1" vertex="1">
          <mxGeometry x="643.63" y="508" width="60" height="48.18181818181818" as="geometry" />
        </mxCell>
        <mxCell id="jzi4S84dbcQ6XCPYerlt-36" value="Backend" style="text;html=1;align=center;verticalAlign=middle;resizable=0;points=[];autosize=1;strokeColor=none;fillColor=none;fontStyle=1" parent="1" vertex="1">
          <mxGeometry x="174.63" y="492.58181818181816" width="70" height="30" as="geometry" />
        </mxCell>
        <mxCell id="9nrLMy0eK1dV_v98iFay-4" value="" style="group" parent="1" vertex="1" connectable="0">
          <mxGeometry x="244.63" y="1001.3818181818182" width="160" height="190" as="geometry" />
        </mxCell>
        <mxCell id="Sa7oayYF3XSetd4DU2Fg-14" value="Data" style="rounded=1;whiteSpace=wrap;html=1;fontSize=12;glass=0;strokeWidth=1;shadow=0;fontStyle=1;verticalAlign=top;" parent="9nrLMy0eK1dV_v98iFay-4" vertex="1">
          <mxGeometry y="14.99" width="147.76" height="165.01" as="geometry" />
        </mxCell>
        <mxCell id="Sa7oayYF3XSetd4DU2Fg-15" value="Data Loader" style="rounded=0;whiteSpace=wrap;html=1;fontSize=12;glass=0;strokeWidth=1;shadow=0;" parent="9nrLMy0eK1dV_v98iFay-4" vertex="1">
          <mxGeometry x="18.470588235294123" y="48.71717171717171" width="110.82352941176471" height="29.97979797979798" as="geometry" />
        </mxCell>
        <mxCell id="Sa7oayYF3XSetd4DU2Fg-16" value="Dataset Manager" style="rounded=0;whiteSpace=wrap;html=1;fontSize=12;glass=0;strokeWidth=1;shadow=0;" parent="9nrLMy0eK1dV_v98iFay-4" vertex="1">
          <mxGeometry x="18.470588235294123" y="89.93939393939394" width="110.82352941176471" height="29.97979797979798" as="geometry" />
        </mxCell>
        <mxCell id="Sa7oayYF3XSetd4DU2Fg-27" value="Dataset Config" style="shape=note;whiteSpace=wrap;html=1;backgroundOutline=1;darkOpacity=0.05;fontFamily=Helvetica;fontSize=11;fontColor=default;labelBackgroundColor=none;size=15;verticalAlign=bottom;" parent="9nrLMy0eK1dV_v98iFay-4" vertex="1">
          <mxGeometry x="110.82" y="-9.636363636363637" width="49.18" height="47.11218181818182" as="geometry" />
        </mxCell>
        <mxCell id="MCK5L93mM9xzwxzd5STt-22" value="Content Extractor" style="rounded=0;whiteSpace=wrap;html=1;fontSize=12;glass=0;strokeWidth=1;shadow=0;" parent="9nrLMy0eK1dV_v98iFay-4" vertex="1">
          <mxGeometry x="18.470588235294123" y="128.61939393939394" width="110.82352941176471" height="29.97979797979798" as="geometry" />
        </mxCell>
        <mxCell id="9nrLMy0eK1dV_v98iFay-2" value="" style="group" parent="1" vertex="1" connectable="0">
          <mxGeometry x="210" y="644" width="524" height="130" as="geometry" />
        </mxCell>
        <mxCell id="2CXdrX7ZxKp920rr_Y1--4" value="Pipeline" style="rounded=1;whiteSpace=wrap;html=1;fontSize=12;glass=0;strokeWidth=1;shadow=0;verticalAlign=top;fontStyle=1" parent="9nrLMy0eK1dV_v98iFay-2" vertex="1">
          <mxGeometry y="20" width="510" height="110" as="geometry" />
        </mxCell>
        <mxCell id="2CXdrX7ZxKp920rr_Y1--6" value="Pre Retrieval&lt;div&gt;Pipe&lt;/div&gt;" style="html=1;shadow=0;dashed=0;align=center;verticalAlign=middle;shape=mxgraph.arrows2.arrow;dy=0;dx=21.45;notch=21.76;fontFamily=Helvetica;fontSize=11;fontColor=default;labelBackgroundColor=default;" parent="9nrLMy0eK1dV_v98iFay-2" vertex="1">
          <mxGeometry x="10" y="60" width="134" height="50" as="geometry" />
        </mxCell>
        <mxCell id="2CXdrX7ZxKp920rr_Y1--11" value="Retrieval&lt;div&gt;Pipe&lt;/div&gt;" style="html=1;shadow=0;dashed=0;align=center;verticalAlign=middle;shape=mxgraph.arrows2.arrow;dy=0;dx=21.45;notch=21.76;fontFamily=Helvetica;fontSize=11;fontColor=default;labelBackgroundColor=default;" parent="9nrLMy0eK1dV_v98iFay-2" vertex="1">
          <mxGeometry x="130" y="60" width="134" height="50" as="geometry" />
        </mxCell>
        <mxCell id="2CXdrX7ZxKp920rr_Y1--12" value="Post Retrieval&lt;div&gt;Pipe&lt;/div&gt;" style="html=1;shadow=0;dashed=0;align=center;verticalAlign=middle;shape=mxgraph.arrows2.arrow;dy=0;dx=21.45;notch=21.76;fontFamily=Helvetica;fontSize=11;fontColor=default;labelBackgroundColor=default;" parent="9nrLMy0eK1dV_v98iFay-2" vertex="1">
          <mxGeometry x="250" y="60" width="134" height="50" as="geometry" />
        </mxCell>
        <mxCell id="2CXdrX7ZxKp920rr_Y1--13" value="Generation&lt;div&gt;Pipe&lt;/div&gt;" style="html=1;shadow=0;dashed=0;align=center;verticalAlign=middle;shape=mxgraph.arrows2.arrow;dy=0;dx=21.45;notch=21.76;fontFamily=Helvetica;fontSize=11;fontColor=default;labelBackgroundColor=default;" parent="9nrLMy0eK1dV_v98iFay-2" vertex="1">
          <mxGeometry x="370" y="60" width="134" height="50" as="geometry" />
        </mxCell>
        <mxCell id="2CXdrX7ZxKp920rr_Y1--14" value="Pipeline&lt;div&gt;Config&lt;/div&gt;" style="shape=note;whiteSpace=wrap;html=1;backgroundOutline=1;darkOpacity=0.05;fontFamily=Helvetica;fontSize=11;fontColor=default;labelBackgroundColor=default;size=15;verticalAlign=bottom;" parent="9nrLMy0eK1dV_v98iFay-2" vertex="1">
          <mxGeometry x="474" width="50" height="50" as="geometry" />
        </mxCell>
        <mxCell id="cnMRPB2jEunF0C_jdwBA-3" value="runs" style="edgeStyle=orthogonalEdgeStyle;shape=connector;rounded=0;jumpSize=5;orthogonalLoop=1;jettySize=auto;html=1;strokeColor=default;strokeWidth=2;align=center;verticalAlign=middle;fontFamily=Helvetica;fontSize=11;fontColor=default;labelBackgroundColor=default;endArrow=classic;endFill=1;" parent="1" source="2CXdrX7ZxKp920rr_Y1--3" target="2CXdrX7ZxKp920rr_Y1--4" edge="1">
          <mxGeometry x="0.0879" y="16" relative="1" as="geometry">
            <Array as="points">
              <mxPoint x="464.63" y="650" />
              <mxPoint x="464.63" y="650" />
            </Array>
            <mxPoint as="offset" />
          </mxGeometry>
        </mxCell>
      </root>
    </mxGraphModel>
  </diagram>
  <diagram name="Config_Manager" id="Tp5u-sSrn3VdTdSHxkO8">
    <mxGraphModel dx="1114" dy="823" grid="1" gridSize="10" guides="1" tooltips="1" connect="1" arrows="1" fold="1" page="1" pageScale="1" pageWidth="850" pageHeight="1100" math="0" shadow="0">
      <root>
        <mxCell id="0" />
        <mxCell id="1" parent="0" />
        <mxCell id="pgmDIBD1BgIZtMaSgtC4-5" value="" style="group" parent="1" vertex="1" connectable="0">
          <mxGeometry x="630" y="270" width="110" height="320" as="geometry" />
        </mxCell>
        <mxCell id="Bmf5u5JUs8D02Jjy4GvE-2" value="Configs" style="rounded=1;whiteSpace=wrap;html=1;fontSize=12;glass=0;strokeWidth=1;shadow=0;verticalAlign=top;fontStyle=1" parent="pgmDIBD1BgIZtMaSgtC4-5" vertex="1">
          <mxGeometry width="110" height="320" as="geometry" />
        </mxCell>
        <mxCell id="pgmDIBD1BgIZtMaSgtC4-1" value="Pipeline&lt;div&gt;Config&lt;/div&gt;" style="shape=note;whiteSpace=wrap;html=1;backgroundOutline=1;darkOpacity=0.05;fontFamily=Helvetica;fontSize=11;fontColor=default;labelBackgroundColor=default;size=15;verticalAlign=bottom;" parent="pgmDIBD1BgIZtMaSgtC4-5" vertex="1">
          <mxGeometry x="25" y="30" width="60" height="60" as="geometry" />
        </mxCell>
        <mxCell id="pgmDIBD1BgIZtMaSgtC4-2" value="Experiment&lt;div&gt;Config&lt;/div&gt;" style="shape=note;whiteSpace=wrap;html=1;backgroundOutline=1;darkOpacity=0.05;fontFamily=Helvetica;fontSize=11;fontColor=default;labelBackgroundColor=default;size=15;verticalAlign=bottom;" parent="pgmDIBD1BgIZtMaSgtC4-5" vertex="1">
          <mxGeometry x="25" y="100" width="60" height="60" as="geometry" />
        </mxCell>
        <mxCell id="pgmDIBD1BgIZtMaSgtC4-3" value="Dataset&lt;div&gt;Config&lt;/div&gt;" style="shape=note;whiteSpace=wrap;html=1;backgroundOutline=1;darkOpacity=0.05;fontFamily=Helvetica;fontSize=11;fontColor=default;labelBackgroundColor=default;size=15;verticalAlign=bottom;" parent="pgmDIBD1BgIZtMaSgtC4-5" vertex="1">
          <mxGeometry x="25" y="170" width="60" height="60" as="geometry" />
        </mxCell>
        <mxCell id="pgmDIBD1BgIZtMaSgtC4-4" value="...&lt;div&gt;&lt;br&gt;&lt;/div&gt;" style="shape=note;whiteSpace=wrap;html=1;backgroundOutline=1;darkOpacity=0.05;fontFamily=Helvetica;fontSize=11;fontColor=default;labelBackgroundColor=default;size=15;verticalAlign=bottom;fontStyle=1" parent="pgmDIBD1BgIZtMaSgtC4-5" vertex="1">
          <mxGeometry x="25" y="240" width="60" height="60" as="geometry" />
        </mxCell>
        <mxCell id="k2l_mmWxSxZbi3Pgj9G3-21" style="edgeStyle=orthogonalEdgeStyle;shape=connector;rounded=0;jumpSize=5;orthogonalLoop=1;jettySize=auto;html=1;strokeColor=default;strokeWidth=2;align=center;verticalAlign=middle;fontFamily=Helvetica;fontSize=11;fontColor=default;labelBackgroundColor=default;endArrow=classic;endFill=1;" parent="1" source="k2l_mmWxSxZbi3Pgj9G3-4" target="k2l_mmWxSxZbi3Pgj9G3-13" edge="1">
          <mxGeometry relative="1" as="geometry">
            <Array as="points">
              <mxPoint x="140" y="430" />
              <mxPoint x="140" y="335" />
            </Array>
          </mxGeometry>
        </mxCell>
        <mxCell id="k2l_mmWxSxZbi3Pgj9G3-22" style="edgeStyle=orthogonalEdgeStyle;shape=connector;rounded=0;jumpSize=5;orthogonalLoop=1;jettySize=auto;html=1;strokeColor=default;strokeWidth=2;align=center;verticalAlign=middle;fontFamily=Helvetica;fontSize=11;fontColor=default;labelBackgroundColor=default;endArrow=classic;endFill=1;" parent="1" source="k2l_mmWxSxZbi3Pgj9G3-4" target="k2l_mmWxSxZbi3Pgj9G3-14" edge="1">
          <mxGeometry relative="1" as="geometry">
            <Array as="points">
              <mxPoint x="140" y="430" />
              <mxPoint x="140" y="405" />
            </Array>
          </mxGeometry>
        </mxCell>
        <mxCell id="k2l_mmWxSxZbi3Pgj9G3-23" style="edgeStyle=orthogonalEdgeStyle;shape=connector;rounded=0;jumpSize=5;orthogonalLoop=1;jettySize=auto;html=1;strokeColor=default;strokeWidth=2;align=center;verticalAlign=middle;fontFamily=Helvetica;fontSize=11;fontColor=default;labelBackgroundColor=default;endArrow=classic;endFill=1;" parent="1" source="k2l_mmWxSxZbi3Pgj9G3-4" target="k2l_mmWxSxZbi3Pgj9G3-15" edge="1">
          <mxGeometry relative="1" as="geometry">
            <Array as="points">
              <mxPoint x="140" y="430" />
              <mxPoint x="140" y="475" />
            </Array>
          </mxGeometry>
        </mxCell>
        <mxCell id="k2l_mmWxSxZbi3Pgj9G3-24" value="provides access" style="edgeStyle=orthogonalEdgeStyle;shape=connector;rounded=0;jumpSize=5;orthogonalLoop=1;jettySize=auto;html=1;strokeColor=default;strokeWidth=2;align=center;verticalAlign=middle;fontFamily=Helvetica;fontSize=11;fontColor=default;labelBackgroundColor=default;endArrow=classic;endFill=1;" parent="1" source="k2l_mmWxSxZbi3Pgj9G3-4" target="k2l_mmWxSxZbi3Pgj9G3-16" edge="1">
          <mxGeometry x="-0.8125" y="-50" relative="1" as="geometry">
            <Array as="points">
              <mxPoint x="140" y="430" />
              <mxPoint x="140" y="540" />
            </Array>
            <mxPoint as="offset" />
          </mxGeometry>
        </mxCell>
        <mxCell id="k2l_mmWxSxZbi3Pgj9G3-4" value="CLI Controller" style="rounded=0;whiteSpace=wrap;html=1;fontSize=12;glass=0;strokeWidth=1;shadow=0;fontStyle=1" parent="1" vertex="1">
          <mxGeometry x="80" y="240" width="120" height="40" as="geometry" />
        </mxCell>
        <mxCell id="k2l_mmWxSxZbi3Pgj9G3-6" value="Pipeline&amp;nbsp;&lt;div&gt;Configuration Manager&lt;/div&gt;" style="rounded=0;whiteSpace=wrap;html=1;fontSize=12;glass=0;strokeWidth=1;shadow=0;fontStyle=1" parent="1" vertex="1">
          <mxGeometry x="410" y="310" width="120" height="50" as="geometry" />
        </mxCell>
        <mxCell id="k2l_mmWxSxZbi3Pgj9G3-7" value="Experiment&lt;div&gt;Configuration Manager&lt;/div&gt;" style="rounded=0;whiteSpace=wrap;html=1;fontSize=12;glass=0;strokeWidth=1;shadow=0;fontStyle=1" parent="1" vertex="1">
          <mxGeometry x="410" y="380" width="120" height="50" as="geometry" />
        </mxCell>
        <mxCell id="k2l_mmWxSxZbi3Pgj9G3-8" value="&lt;div&gt;Dataset&amp;nbsp;&lt;/div&gt;&lt;div&gt;Configuration Manager&lt;/div&gt;" style="rounded=0;whiteSpace=wrap;html=1;fontSize=12;glass=0;strokeWidth=1;shadow=0;fontStyle=1" parent="1" vertex="1">
          <mxGeometry x="410" y="450" width="120" height="50" as="geometry" />
        </mxCell>
        <mxCell id="k2l_mmWxSxZbi3Pgj9G3-9" value="&lt;div&gt;[...]&lt;/div&gt;&lt;div&gt;Configuration Manager&lt;/div&gt;" style="rounded=0;whiteSpace=wrap;html=1;fontSize=12;glass=0;strokeWidth=1;shadow=0;fontStyle=1" parent="1" vertex="1">
          <mxGeometry x="410" y="515" width="120" height="50" as="geometry" />
        </mxCell>
        <mxCell id="k2l_mmWxSxZbi3Pgj9G3-2" value="manages" style="edgeStyle=orthogonalEdgeStyle;shape=connector;rounded=0;jumpSize=5;orthogonalLoop=1;jettySize=auto;html=1;strokeColor=default;strokeWidth=2;align=center;verticalAlign=middle;fontFamily=Helvetica;fontSize=11;fontColor=default;labelBackgroundColor=default;endArrow=classic;endFill=1;exitX=1;exitY=0.5;exitDx=0;exitDy=0;" parent="1" source="k2l_mmWxSxZbi3Pgj9G3-9" target="pgmDIBD1BgIZtMaSgtC4-4" edge="1">
          <mxGeometry y="10" relative="1" as="geometry">
            <mxPoint x="530" y="570.0285714285715" as="sourcePoint" />
            <Array as="points" />
            <mxPoint as="offset" />
          </mxGeometry>
        </mxCell>
        <mxCell id="k2l_mmWxSxZbi3Pgj9G3-10" value="manages" style="edgeStyle=orthogonalEdgeStyle;shape=connector;rounded=0;jumpSize=5;orthogonalLoop=1;jettySize=auto;html=1;strokeColor=default;strokeWidth=2;align=center;verticalAlign=middle;fontFamily=Helvetica;fontSize=11;fontColor=default;labelBackgroundColor=default;endArrow=classic;endFill=1;exitX=1;exitY=0.5;exitDx=0;exitDy=0;" parent="1" edge="1">
          <mxGeometry y="10" relative="1" as="geometry">
            <mxPoint x="530" y="474.71" as="sourcePoint" />
            <mxPoint x="655" y="474.71" as="targetPoint" />
            <Array as="points" />
            <mxPoint as="offset" />
          </mxGeometry>
        </mxCell>
        <mxCell id="k2l_mmWxSxZbi3Pgj9G3-11" value="manages" style="edgeStyle=orthogonalEdgeStyle;shape=connector;rounded=0;jumpSize=5;orthogonalLoop=1;jettySize=auto;html=1;strokeColor=default;strokeWidth=2;align=center;verticalAlign=middle;fontFamily=Helvetica;fontSize=11;fontColor=default;labelBackgroundColor=default;endArrow=classic;endFill=1;exitX=1;exitY=0.5;exitDx=0;exitDy=0;" parent="1" edge="1">
          <mxGeometry y="10" relative="1" as="geometry">
            <mxPoint x="530" y="404.71" as="sourcePoint" />
            <mxPoint x="655" y="404.71" as="targetPoint" />
            <Array as="points" />
            <mxPoint as="offset" />
          </mxGeometry>
        </mxCell>
        <mxCell id="k2l_mmWxSxZbi3Pgj9G3-12" value="manages" style="edgeStyle=orthogonalEdgeStyle;shape=connector;rounded=0;jumpSize=5;orthogonalLoop=1;jettySize=auto;html=1;strokeColor=default;strokeWidth=2;align=center;verticalAlign=middle;fontFamily=Helvetica;fontSize=11;fontColor=default;labelBackgroundColor=default;endArrow=classic;endFill=1;exitX=1;exitY=0.5;exitDx=0;exitDy=0;" parent="1" edge="1">
          <mxGeometry y="10" relative="1" as="geometry">
            <mxPoint x="530" y="334.71" as="sourcePoint" />
            <mxPoint x="655" y="334.71" as="targetPoint" />
            <Array as="points" />
            <mxPoint as="offset" />
          </mxGeometry>
        </mxCell>
        <mxCell id="k2l_mmWxSxZbi3Pgj9G3-17" value="controls" style="edgeStyle=orthogonalEdgeStyle;shape=connector;rounded=0;jumpSize=5;orthogonalLoop=1;jettySize=auto;html=1;strokeColor=default;strokeWidth=2;align=center;verticalAlign=middle;fontFamily=Helvetica;fontSize=11;fontColor=default;labelBackgroundColor=default;endArrow=classic;endFill=1;" parent="1" source="k2l_mmWxSxZbi3Pgj9G3-13" target="k2l_mmWxSxZbi3Pgj9G3-6" edge="1">
          <mxGeometry x="-0.1111" y="15" relative="1" as="geometry">
            <mxPoint as="offset" />
          </mxGeometry>
        </mxCell>
        <mxCell id="k2l_mmWxSxZbi3Pgj9G3-13" value="Pipeline Config&amp;nbsp;&lt;div&gt;Command&amp;nbsp;&lt;/div&gt;&lt;div&gt;Handler&lt;/div&gt;" style="rounded=0;whiteSpace=wrap;html=1;fontSize=12;glass=0;strokeWidth=1;shadow=0;fontStyle=1" parent="1" vertex="1">
          <mxGeometry x="200" y="310" width="120" height="50" as="geometry" />
        </mxCell>
        <mxCell id="k2l_mmWxSxZbi3Pgj9G3-14" value="Experiment Config&amp;nbsp;&lt;div&gt;Command&amp;nbsp;&lt;/div&gt;&lt;div&gt;Handler&lt;/div&gt;" style="rounded=0;whiteSpace=wrap;html=1;fontSize=12;glass=0;strokeWidth=1;shadow=0;fontStyle=1" parent="1" vertex="1">
          <mxGeometry x="200" y="380" width="120" height="50" as="geometry" />
        </mxCell>
        <mxCell id="k2l_mmWxSxZbi3Pgj9G3-15" value="&lt;div&gt;Dataset&amp;nbsp;&lt;span style=&quot;background-color: initial;&quot;&gt;Config&amp;nbsp;&lt;/span&gt;&lt;/div&gt;&lt;div&gt;Command&amp;nbsp;&lt;/div&gt;&lt;div&gt;Handler&lt;/div&gt;" style="rounded=0;whiteSpace=wrap;html=1;fontSize=12;glass=0;strokeWidth=1;shadow=0;fontStyle=1" parent="1" vertex="1">
          <mxGeometry x="200" y="450" width="120" height="50" as="geometry" />
        </mxCell>
        <mxCell id="k2l_mmWxSxZbi3Pgj9G3-16" value="&lt;div&gt;[...]&amp;nbsp;&lt;span style=&quot;background-color: initial;&quot;&gt;Config&amp;nbsp;&lt;/span&gt;&lt;/div&gt;&lt;div&gt;Command&amp;nbsp;&lt;/div&gt;&lt;div&gt;Handler&lt;/div&gt;" style="rounded=0;whiteSpace=wrap;html=1;fontSize=12;glass=0;strokeWidth=1;shadow=0;fontStyle=1" parent="1" vertex="1">
          <mxGeometry x="200" y="515" width="120" height="50" as="geometry" />
        </mxCell>
        <mxCell id="k2l_mmWxSxZbi3Pgj9G3-18" value="controls" style="edgeStyle=orthogonalEdgeStyle;shape=connector;rounded=0;jumpSize=5;orthogonalLoop=1;jettySize=auto;html=1;strokeColor=default;strokeWidth=2;align=center;verticalAlign=middle;fontFamily=Helvetica;fontSize=11;fontColor=default;labelBackgroundColor=default;endArrow=classic;endFill=1;" parent="1" edge="1">
          <mxGeometry x="-0.1111" y="15" relative="1" as="geometry">
            <mxPoint x="320" y="404.71" as="sourcePoint" />
            <mxPoint x="410" y="404.71" as="targetPoint" />
            <mxPoint as="offset" />
          </mxGeometry>
        </mxCell>
        <mxCell id="k2l_mmWxSxZbi3Pgj9G3-19" value="controls" style="edgeStyle=orthogonalEdgeStyle;shape=connector;rounded=0;jumpSize=5;orthogonalLoop=1;jettySize=auto;html=1;strokeColor=default;strokeWidth=2;align=center;verticalAlign=middle;fontFamily=Helvetica;fontSize=11;fontColor=default;labelBackgroundColor=default;endArrow=classic;endFill=1;" parent="1" edge="1">
          <mxGeometry x="-0.1111" y="15" relative="1" as="geometry">
            <mxPoint x="320" y="474.71" as="sourcePoint" />
            <mxPoint x="410" y="474.71" as="targetPoint" />
            <mxPoint as="offset" />
          </mxGeometry>
        </mxCell>
        <mxCell id="k2l_mmWxSxZbi3Pgj9G3-20" value="controls" style="edgeStyle=orthogonalEdgeStyle;shape=connector;rounded=0;jumpSize=5;orthogonalLoop=1;jettySize=auto;html=1;strokeColor=default;strokeWidth=2;align=center;verticalAlign=middle;fontFamily=Helvetica;fontSize=11;fontColor=default;labelBackgroundColor=default;endArrow=classic;endFill=1;" parent="1" edge="1">
          <mxGeometry x="-0.1111" y="15" relative="1" as="geometry">
            <mxPoint x="320" y="539.71" as="sourcePoint" />
            <mxPoint x="410" y="539.71" as="targetPoint" />
            <mxPoint as="offset" />
          </mxGeometry>
        </mxCell>
      </root>
    </mxGraphModel>
  </diagram>
</mxfile>
